<mxfile host="app.diagrams.net" modified="2024-05-20T21:57:22.529Z" agent="Mozilla/5.0 (Windows NT 10.0; Win64; x64) AppleWebKit/537.36 (KHTML, like Gecko) Chrome/124.0.0.0 Safari/537.36" etag="wM0BO7vWVnI427Wajb3F" version="24.4.4" type="github" pages="2">
  <diagram name="Página-1" id="NrLhKzjZjxU4t5tJcpzj" />
  <diagram name="Cópia do Página-1" id="FZczlN720Y7JvSet55px">
    <mxGraphModel dx="1877" dy="1776" grid="1" gridSize="10" guides="1" tooltips="1" connect="1" arrows="1" fold="1" page="1" pageScale="1" pageWidth="827" pageHeight="1169" math="0" shadow="0">
      <root>
        <mxCell id="sPsWBP4yPpg4sQN6y6cw-0" />
        <mxCell id="sPsWBP4yPpg4sQN6y6cw-1" parent="sPsWBP4yPpg4sQN6y6cw-0" />
        <mxCell id="L4MWPg49hpz_FnOXa8zw-14" style="edgeStyle=orthogonalEdgeStyle;rounded=0;orthogonalLoop=1;jettySize=auto;html=1;fontSize=12;startSize=8;endSize=8;" edge="1" parent="sPsWBP4yPpg4sQN6y6cw-1" source="L4MWPg49hpz_FnOXa8zw-9">
          <mxGeometry relative="1" as="geometry">
            <mxPoint x="480" y="730" as="targetPoint" />
          </mxGeometry>
        </mxCell>
        <mxCell id="sPsWBP4yPpg4sQN6y6cw-2" value="" style="endArrow=none;dashed=1;html=1;dashPattern=1 3;strokeWidth=2;rounded=0;" edge="1" parent="sPsWBP4yPpg4sQN6y6cw-1">
          <mxGeometry width="50" height="50" relative="1" as="geometry">
            <mxPoint x="-200" y="200" as="sourcePoint" />
            <mxPoint x="880" y="200" as="targetPoint" />
          </mxGeometry>
        </mxCell>
        <mxCell id="sPsWBP4yPpg4sQN6y6cw-3" value="&lt;font style=&quot;font-size: 30px;&quot;&gt;Cliente&lt;/font&gt;" style="text;html=1;align=center;verticalAlign=middle;whiteSpace=wrap;rounded=0;" vertex="1" parent="sPsWBP4yPpg4sQN6y6cw-1">
          <mxGeometry x="-110" y="95" width="110" height="70" as="geometry" />
        </mxCell>
        <mxCell id="sPsWBP4yPpg4sQN6y6cw-4" value="" style="edgeStyle=orthogonalEdgeStyle;rounded=0;orthogonalLoop=1;jettySize=auto;html=1;" edge="1" parent="sPsWBP4yPpg4sQN6y6cw-1" source="sPsWBP4yPpg4sQN6y6cw-5" target="sPsWBP4yPpg4sQN6y6cw-8">
          <mxGeometry relative="1" as="geometry" />
        </mxCell>
        <mxCell id="sPsWBP4yPpg4sQN6y6cw-5" value="Inicio" style="ellipse;whiteSpace=wrap;html=1;aspect=fixed;" vertex="1" parent="sPsWBP4yPpg4sQN6y6cw-1">
          <mxGeometry x="60" y="-50" width="80" height="80" as="geometry" />
        </mxCell>
        <mxCell id="sPsWBP4yPpg4sQN6y6cw-6" value="" style="edgeStyle=orthogonalEdgeStyle;rounded=0;orthogonalLoop=1;jettySize=auto;html=1;" edge="1" parent="sPsWBP4yPpg4sQN6y6cw-1" source="sPsWBP4yPpg4sQN6y6cw-8">
          <mxGeometry relative="1" as="geometry">
            <mxPoint x="100" y="250" as="targetPoint" />
          </mxGeometry>
        </mxCell>
        <mxCell id="sPsWBP4yPpg4sQN6y6cw-7" value="" style="edgeStyle=orthogonalEdgeStyle;rounded=0;orthogonalLoop=1;jettySize=auto;html=1;" edge="1" parent="sPsWBP4yPpg4sQN6y6cw-1" source="sPsWBP4yPpg4sQN6y6cw-8" target="sPsWBP4yPpg4sQN6y6cw-22">
          <mxGeometry relative="1" as="geometry" />
        </mxCell>
        <mxCell id="sPsWBP4yPpg4sQN6y6cw-8" value="Trocar o sistema operacional" style="whiteSpace=wrap;html=1;" vertex="1" parent="sPsWBP4yPpg4sQN6y6cw-1">
          <mxGeometry x="40" y="100" width="120" height="60" as="geometry" />
        </mxCell>
        <mxCell id="sPsWBP4yPpg4sQN6y6cw-20" value="&lt;font style=&quot;font-size: 30px;&quot;&gt;N1&lt;/font&gt;" style="text;html=1;align=center;verticalAlign=middle;whiteSpace=wrap;rounded=0;" vertex="1" parent="sPsWBP4yPpg4sQN6y6cw-1">
          <mxGeometry x="-110" y="500" width="110" height="70" as="geometry" />
        </mxCell>
        <mxCell id="sPsWBP4yPpg4sQN6y6cw-21" style="edgeStyle=orthogonalEdgeStyle;rounded=0;orthogonalLoop=1;jettySize=auto;html=1;entryX=1;entryY=0.5;entryDx=0;entryDy=0;" edge="1" parent="sPsWBP4yPpg4sQN6y6cw-1" source="sPsWBP4yPpg4sQN6y6cw-22" target="sPsWBP4yPpg4sQN6y6cw-5">
          <mxGeometry relative="1" as="geometry">
            <mxPoint x="300" y="-10" as="targetPoint" />
            <Array as="points">
              <mxPoint x="300" y="50" />
              <mxPoint x="301" y="50" />
              <mxPoint x="301" y="-10" />
            </Array>
          </mxGeometry>
        </mxCell>
        <mxCell id="sPsWBP4yPpg4sQN6y6cw-22" value="Cliente consegue resolver?" style="rhombus;whiteSpace=wrap;html=1;" vertex="1" parent="sPsWBP4yPpg4sQN6y6cw-1">
          <mxGeometry x="260" y="90" width="80" height="80" as="geometry" />
        </mxCell>
        <mxCell id="sPsWBP4yPpg4sQN6y6cw-23" style="edgeStyle=orthogonalEdgeStyle;rounded=0;orthogonalLoop=1;jettySize=auto;html=1;entryX=0;entryY=0.5;entryDx=0;entryDy=0;" edge="1" parent="sPsWBP4yPpg4sQN6y6cw-1" source="sPsWBP4yPpg4sQN6y6cw-22" target="L4MWPg49hpz_FnOXa8zw-44">
          <mxGeometry relative="1" as="geometry">
            <mxPoint x="650" y="150" as="targetPoint" />
          </mxGeometry>
        </mxCell>
        <mxCell id="sPsWBP4yPpg4sQN6y6cw-24" value="Sim" style="text;html=1;align=center;verticalAlign=middle;resizable=0;points=[];autosize=1;strokeColor=none;fillColor=none;" vertex="1" parent="sPsWBP4yPpg4sQN6y6cw-1">
          <mxGeometry x="325" y="85" width="40" height="30" as="geometry" />
        </mxCell>
        <mxCell id="sPsWBP4yPpg4sQN6y6cw-25" value="Não" style="text;html=1;align=center;verticalAlign=middle;resizable=0;points=[];autosize=1;strokeColor=none;fillColor=none;" vertex="1" parent="sPsWBP4yPpg4sQN6y6cw-1">
          <mxGeometry x="240" y="70" width="50" height="30" as="geometry" />
        </mxCell>
        <mxCell id="sPsWBP4yPpg4sQN6y6cw-34" value="&lt;font style=&quot;font-size: 30px;&quot;&gt;N2&lt;/font&gt;" style="text;html=1;align=center;verticalAlign=middle;whiteSpace=wrap;rounded=0;" vertex="1" parent="sPsWBP4yPpg4sQN6y6cw-1">
          <mxGeometry x="-110" y="975" width="110" height="70" as="geometry" />
        </mxCell>
        <mxCell id="sPsWBP4yPpg4sQN6y6cw-53" style="edgeStyle=orthogonalEdgeStyle;rounded=0;orthogonalLoop=1;jettySize=auto;html=1;" edge="1" parent="sPsWBP4yPpg4sQN6y6cw-1" source="sPsWBP4yPpg4sQN6y6cw-55" target="sPsWBP4yPpg4sQN6y6cw-57">
          <mxGeometry relative="1" as="geometry">
            <mxPoint x="230" y="1010" as="targetPoint" />
          </mxGeometry>
        </mxCell>
        <mxCell id="sPsWBP4yPpg4sQN6y6cw-54" style="edgeStyle=orthogonalEdgeStyle;rounded=0;orthogonalLoop=1;jettySize=auto;html=1;entryX=0.5;entryY=0;entryDx=0;entryDy=0;" edge="1" parent="sPsWBP4yPpg4sQN6y6cw-1" source="sPsWBP4yPpg4sQN6y6cw-55" target="sPsWBP4yPpg4sQN6y6cw-64">
          <mxGeometry relative="1" as="geometry" />
        </mxCell>
        <mxCell id="sPsWBP4yPpg4sQN6y6cw-55" value="N2 consegue resolver?" style="rhombus;whiteSpace=wrap;html=1;" vertex="1" parent="sPsWBP4yPpg4sQN6y6cw-1">
          <mxGeometry x="60" y="975" width="80" height="80" as="geometry" />
        </mxCell>
        <mxCell id="sPsWBP4yPpg4sQN6y6cw-56" value="" style="edgeStyle=orthogonalEdgeStyle;rounded=0;orthogonalLoop=1;jettySize=auto;html=1;entryX=0;entryY=0.5;entryDx=0;entryDy=0;entryPerimeter=0;" edge="1" parent="sPsWBP4yPpg4sQN6y6cw-1" source="sPsWBP4yPpg4sQN6y6cw-57" target="L4MWPg49hpz_FnOXa8zw-28">
          <mxGeometry relative="1" as="geometry">
            <mxPoint x="403" y="1015" as="targetPoint" />
          </mxGeometry>
        </mxCell>
        <mxCell id="sPsWBP4yPpg4sQN6y6cw-57" value="Implementação do novo Sistema Operacional" style="rounded=0;whiteSpace=wrap;html=1;" vertex="1" parent="sPsWBP4yPpg4sQN6y6cw-1">
          <mxGeometry x="260" y="985" width="120" height="60" as="geometry" />
        </mxCell>
        <mxCell id="sPsWBP4yPpg4sQN6y6cw-60" value="" style="endArrow=none;dashed=1;html=1;dashPattern=1 3;strokeWidth=2;rounded=0;" edge="1" parent="sPsWBP4yPpg4sQN6y6cw-1">
          <mxGeometry width="50" height="50" relative="1" as="geometry">
            <mxPoint x="-220" y="940" as="sourcePoint" />
            <mxPoint x="882.4000244140625" y="940" as="targetPoint" />
          </mxGeometry>
        </mxCell>
        <mxCell id="sPsWBP4yPpg4sQN6y6cw-61" value="&lt;font style=&quot;font-size: 30px;&quot;&gt;N3&lt;/font&gt;" style="text;html=1;align=center;verticalAlign=middle;whiteSpace=wrap;rounded=0;" vertex="1" parent="sPsWBP4yPpg4sQN6y6cw-1">
          <mxGeometry x="-110" y="1150" width="110" height="70" as="geometry" />
        </mxCell>
        <mxCell id="sPsWBP4yPpg4sQN6y6cw-62" style="edgeStyle=orthogonalEdgeStyle;rounded=0;orthogonalLoop=1;jettySize=auto;html=1;" edge="1" parent="sPsWBP4yPpg4sQN6y6cw-1" source="sPsWBP4yPpg4sQN6y6cw-64" target="sPsWBP4yPpg4sQN6y6cw-66">
          <mxGeometry relative="1" as="geometry">
            <mxPoint x="230" y="1185" as="targetPoint" />
          </mxGeometry>
        </mxCell>
        <mxCell id="sPsWBP4yPpg4sQN6y6cw-63" value="" style="edgeStyle=orthogonalEdgeStyle;rounded=0;orthogonalLoop=1;jettySize=auto;html=1;" edge="1" parent="sPsWBP4yPpg4sQN6y6cw-1" source="sPsWBP4yPpg4sQN6y6cw-64" target="sPsWBP4yPpg4sQN6y6cw-75">
          <mxGeometry relative="1" as="geometry" />
        </mxCell>
        <mxCell id="sPsWBP4yPpg4sQN6y6cw-64" value="N3 consegue resolver?" style="rhombus;whiteSpace=wrap;html=1;" vertex="1" parent="sPsWBP4yPpg4sQN6y6cw-1">
          <mxGeometry x="60" y="1145" width="80" height="80" as="geometry" />
        </mxCell>
        <mxCell id="sPsWBP4yPpg4sQN6y6cw-65" value="" style="edgeStyle=orthogonalEdgeStyle;rounded=0;orthogonalLoop=1;jettySize=auto;html=1;entryX=-0.018;entryY=0.592;entryDx=0;entryDy=0;entryPerimeter=0;" edge="1" parent="sPsWBP4yPpg4sQN6y6cw-1" source="sPsWBP4yPpg4sQN6y6cw-66" target="L4MWPg49hpz_FnOXa8zw-30">
          <mxGeometry relative="1" as="geometry">
            <mxPoint x="440" y="1185" as="targetPoint" />
          </mxGeometry>
        </mxCell>
        <mxCell id="sPsWBP4yPpg4sQN6y6cw-66" value="Implementação do novo Sistema Operacional" style="rounded=0;whiteSpace=wrap;html=1;" vertex="1" parent="sPsWBP4yPpg4sQN6y6cw-1">
          <mxGeometry x="250" y="1155" width="120" height="60" as="geometry" />
        </mxCell>
        <mxCell id="sPsWBP4yPpg4sQN6y6cw-69" value="" style="endArrow=none;dashed=1;html=1;dashPattern=1 3;strokeWidth=2;rounded=0;" edge="1" parent="sPsWBP4yPpg4sQN6y6cw-1">
          <mxGeometry width="50" height="50" relative="1" as="geometry">
            <mxPoint x="-210" y="1110" as="sourcePoint" />
            <mxPoint x="880" y="1110" as="targetPoint" />
          </mxGeometry>
        </mxCell>
        <mxCell id="sPsWBP4yPpg4sQN6y6cw-70" style="edgeStyle=orthogonalEdgeStyle;rounded=0;orthogonalLoop=1;jettySize=auto;html=1;" edge="1" parent="sPsWBP4yPpg4sQN6y6cw-1" target="sPsWBP4yPpg4sQN6y6cw-72">
          <mxGeometry relative="1" as="geometry">
            <mxPoint x="230" y="1365" as="targetPoint" />
            <mxPoint x="140" y="1365" as="sourcePoint" />
          </mxGeometry>
        </mxCell>
        <mxCell id="sPsWBP4yPpg4sQN6y6cw-71" value="" style="edgeStyle=orthogonalEdgeStyle;rounded=0;orthogonalLoop=1;jettySize=auto;html=1;entryX=0;entryY=0.5;entryDx=0;entryDy=0;entryPerimeter=0;" edge="1" parent="sPsWBP4yPpg4sQN6y6cw-1" source="sPsWBP4yPpg4sQN6y6cw-72" target="L4MWPg49hpz_FnOXa8zw-34">
          <mxGeometry relative="1" as="geometry">
            <mxPoint x="440" y="1365" as="targetPoint" />
          </mxGeometry>
        </mxCell>
        <mxCell id="sPsWBP4yPpg4sQN6y6cw-72" value="Implementação do novo Sistema Operacional" style="rounded=0;whiteSpace=wrap;html=1;" vertex="1" parent="sPsWBP4yPpg4sQN6y6cw-1">
          <mxGeometry x="250" y="1335" width="120" height="60" as="geometry" />
        </mxCell>
        <mxCell id="sPsWBP4yPpg4sQN6y6cw-75" value="Fornecedor consegue resolver?" style="rhombus;whiteSpace=wrap;html=1;" vertex="1" parent="sPsWBP4yPpg4sQN6y6cw-1">
          <mxGeometry x="60" y="1325" width="80" height="80" as="geometry" />
        </mxCell>
        <mxCell id="sPsWBP4yPpg4sQN6y6cw-76" value="&lt;font style=&quot;font-size: 30px;&quot;&gt;Fornecedor&lt;/font&gt;" style="text;html=1;align=center;verticalAlign=middle;whiteSpace=wrap;rounded=0;" vertex="1" parent="sPsWBP4yPpg4sQN6y6cw-1">
          <mxGeometry x="-120" y="1330" width="110" height="70" as="geometry" />
        </mxCell>
        <mxCell id="TTb2qLBC5duDvl7IXjV--5" value="" style="edgeStyle=none;curved=1;rounded=0;orthogonalLoop=1;jettySize=auto;html=1;fontSize=12;startSize=8;endSize=8;" edge="1" parent="sPsWBP4yPpg4sQN6y6cw-1" source="TTb2qLBC5duDvl7IXjV--1" target="sPsWBP4yPpg4sQN6y6cw-8">
          <mxGeometry relative="1" as="geometry">
            <Array as="points">
              <mxPoint x="100" y="210" />
            </Array>
          </mxGeometry>
        </mxCell>
        <mxCell id="TTb2qLBC5duDvl7IXjV--13" style="edgeStyle=orthogonalEdgeStyle;rounded=0;orthogonalLoop=1;jettySize=auto;html=1;fontSize=12;startSize=8;endSize=8;entryX=0.5;entryY=1;entryDx=0;entryDy=0;" edge="1" parent="sPsWBP4yPpg4sQN6y6cw-1" source="TTb2qLBC5duDvl7IXjV--1" target="L4MWPg49hpz_FnOXa8zw-44">
          <mxGeometry relative="1" as="geometry">
            <mxPoint x="710" y="170" as="targetPoint" />
          </mxGeometry>
        </mxCell>
        <mxCell id="TTb2qLBC5duDvl7IXjV--16" value="" style="edgeStyle=none;curved=1;rounded=0;orthogonalLoop=1;jettySize=auto;html=1;fontSize=12;startSize=8;endSize=8;" edge="1" parent="sPsWBP4yPpg4sQN6y6cw-1" source="TTb2qLBC5duDvl7IXjV--1" target="TTb2qLBC5duDvl7IXjV--15">
          <mxGeometry relative="1" as="geometry" />
        </mxCell>
        <mxCell id="TTb2qLBC5duDvl7IXjV--1" value="É um problema?" style="rhombus;whiteSpace=wrap;html=1;" vertex="1" parent="sPsWBP4yPpg4sQN6y6cw-1">
          <mxGeometry x="60" y="250" width="80" height="80" as="geometry" />
        </mxCell>
        <mxCell id="TTb2qLBC5duDvl7IXjV--18" value="" style="edgeStyle=none;curved=1;rounded=0;orthogonalLoop=1;jettySize=auto;html=1;fontSize=12;startSize=8;endSize=8;" edge="1" parent="sPsWBP4yPpg4sQN6y6cw-1" source="TTb2qLBC5duDvl7IXjV--15" target="TTb2qLBC5duDvl7IXjV--17">
          <mxGeometry relative="1" as="geometry" />
        </mxCell>
        <mxCell id="TTb2qLBC5duDvl7IXjV--19" style="edgeStyle=orthogonalEdgeStyle;rounded=0;orthogonalLoop=1;jettySize=auto;html=1;fontSize=12;startSize=8;endSize=8;entryX=0.5;entryY=1;entryDx=0;entryDy=0;" edge="1" parent="sPsWBP4yPpg4sQN6y6cw-1" source="TTb2qLBC5duDvl7IXjV--15" target="L4MWPg49hpz_FnOXa8zw-44">
          <mxGeometry relative="1" as="geometry">
            <mxPoint x="710" y="170" as="targetPoint" />
          </mxGeometry>
        </mxCell>
        <mxCell id="TTb2qLBC5duDvl7IXjV--15" value="É um incidente?" style="rhombus;whiteSpace=wrap;html=1;" vertex="1" parent="sPsWBP4yPpg4sQN6y6cw-1">
          <mxGeometry x="60" y="360" width="80" height="80" as="geometry" />
        </mxCell>
        <mxCell id="TTb2qLBC5duDvl7IXjV--20" style="edgeStyle=orthogonalEdgeStyle;rounded=0;orthogonalLoop=1;jettySize=auto;html=1;fontSize=12;startSize=8;endSize=8;entryX=0.5;entryY=1;entryDx=0;entryDy=0;" edge="1" parent="sPsWBP4yPpg4sQN6y6cw-1" source="TTb2qLBC5duDvl7IXjV--17" target="L4MWPg49hpz_FnOXa8zw-44">
          <mxGeometry relative="1" as="geometry">
            <mxPoint x="710" y="170" as="targetPoint" />
          </mxGeometry>
        </mxCell>
        <mxCell id="L4MWPg49hpz_FnOXa8zw-5" value="" style="edgeStyle=none;curved=1;rounded=0;orthogonalLoop=1;jettySize=auto;html=1;fontSize=12;startSize=8;endSize=8;" edge="1" parent="sPsWBP4yPpg4sQN6y6cw-1" source="TTb2qLBC5duDvl7IXjV--17" target="L4MWPg49hpz_FnOXa8zw-4">
          <mxGeometry relative="1" as="geometry" />
        </mxCell>
        <mxCell id="TTb2qLBC5duDvl7IXjV--17" value="É uma requisição?" style="rhombus;whiteSpace=wrap;html=1;" vertex="1" parent="sPsWBP4yPpg4sQN6y6cw-1">
          <mxGeometry x="60" y="470" width="80" height="80" as="geometry" />
        </mxCell>
        <mxCell id="TTb2qLBC5duDvl7IXjV--22" value="Sim" style="text;html=1;align=center;verticalAlign=middle;resizable=0;points=[];autosize=1;strokeColor=none;fillColor=none;" vertex="1" parent="sPsWBP4yPpg4sQN6y6cw-1">
          <mxGeometry x="130" y="260" width="40" height="30" as="geometry" />
        </mxCell>
        <mxCell id="TTb2qLBC5duDvl7IXjV--23" value="Sim" style="text;html=1;align=center;verticalAlign=middle;resizable=0;points=[];autosize=1;strokeColor=none;fillColor=none;" vertex="1" parent="sPsWBP4yPpg4sQN6y6cw-1">
          <mxGeometry x="130" y="370" width="40" height="30" as="geometry" />
        </mxCell>
        <mxCell id="L4MWPg49hpz_FnOXa8zw-0" value="Não" style="text;html=1;align=center;verticalAlign=middle;resizable=0;points=[];autosize=1;strokeColor=none;fillColor=none;" vertex="1" parent="sPsWBP4yPpg4sQN6y6cw-1">
          <mxGeometry x="40" y="320" width="50" height="30" as="geometry" />
        </mxCell>
        <mxCell id="L4MWPg49hpz_FnOXa8zw-1" value="Não" style="text;html=1;align=center;verticalAlign=middle;resizable=0;points=[];autosize=1;strokeColor=none;fillColor=none;" vertex="1" parent="sPsWBP4yPpg4sQN6y6cw-1">
          <mxGeometry x="40" y="430" width="50" height="30" as="geometry" />
        </mxCell>
        <mxCell id="L4MWPg49hpz_FnOXa8zw-2" value="Sim" style="text;html=1;align=center;verticalAlign=middle;resizable=0;points=[];autosize=1;strokeColor=none;fillColor=none;" vertex="1" parent="sPsWBP4yPpg4sQN6y6cw-1">
          <mxGeometry x="40" y="520" width="40" height="30" as="geometry" />
        </mxCell>
        <mxCell id="L4MWPg49hpz_FnOXa8zw-3" value="Não" style="text;html=1;align=center;verticalAlign=middle;resizable=0;points=[];autosize=1;strokeColor=none;fillColor=none;" vertex="1" parent="sPsWBP4yPpg4sQN6y6cw-1">
          <mxGeometry x="120" y="480" width="50" height="30" as="geometry" />
        </mxCell>
        <mxCell id="L4MWPg49hpz_FnOXa8zw-7" value="" style="edgeStyle=orthogonalEdgeStyle;rounded=0;orthogonalLoop=1;jettySize=auto;html=1;fontSize=12;startSize=8;endSize=8;" edge="1" parent="sPsWBP4yPpg4sQN6y6cw-1" source="L4MWPg49hpz_FnOXa8zw-4">
          <mxGeometry relative="1" as="geometry">
            <mxPoint x="220" y="630" as="targetPoint" />
          </mxGeometry>
        </mxCell>
        <mxCell id="L4MWPg49hpz_FnOXa8zw-4" value="Registro da ocorrência" style="whiteSpace=wrap;html=1;" vertex="1" parent="sPsWBP4yPpg4sQN6y6cw-1">
          <mxGeometry x="40" y="600" width="120" height="60" as="geometry" />
        </mxCell>
        <mxCell id="L4MWPg49hpz_FnOXa8zw-10" value="" style="edgeStyle=orthogonalEdgeStyle;rounded=0;orthogonalLoop=1;jettySize=auto;html=1;fontSize=12;startSize=8;endSize=8;" edge="1" parent="sPsWBP4yPpg4sQN6y6cw-1" source="L4MWPg49hpz_FnOXa8zw-8" target="L4MWPg49hpz_FnOXa8zw-9">
          <mxGeometry relative="1" as="geometry" />
        </mxCell>
        <mxCell id="L4MWPg49hpz_FnOXa8zw-8" value="Identificar quem foi afetado para solicitação da troca" style="shape=process;whiteSpace=wrap;html=1;backgroundOutline=1;" vertex="1" parent="sPsWBP4yPpg4sQN6y6cw-1">
          <mxGeometry x="220" y="600" width="120" height="60" as="geometry" />
        </mxCell>
        <mxCell id="L4MWPg49hpz_FnOXa8zw-9" value="Definir prioridade com base na Matrix SLA" style="shape=process;whiteSpace=wrap;html=1;backgroundOutline=1;" vertex="1" parent="sPsWBP4yPpg4sQN6y6cw-1">
          <mxGeometry x="420" y="600" width="120" height="60" as="geometry" />
        </mxCell>
        <mxCell id="L4MWPg49hpz_FnOXa8zw-20" style="edgeStyle=none;curved=1;rounded=0;orthogonalLoop=1;jettySize=auto;html=1;entryX=0.5;entryY=0;entryDx=0;entryDy=0;fontSize=12;startSize=8;endSize=8;" edge="1" parent="sPsWBP4yPpg4sQN6y6cw-1" source="L4MWPg49hpz_FnOXa8zw-12" target="L4MWPg49hpz_FnOXa8zw-17">
          <mxGeometry relative="1" as="geometry" />
        </mxCell>
        <mxCell id="L4MWPg49hpz_FnOXa8zw-22" style="edgeStyle=none;curved=1;rounded=0;orthogonalLoop=1;jettySize=auto;html=1;entryX=0.5;entryY=0;entryDx=0;entryDy=0;fontSize=12;startSize=8;endSize=8;" edge="1" parent="sPsWBP4yPpg4sQN6y6cw-1" source="L4MWPg49hpz_FnOXa8zw-12" target="sPsWBP4yPpg4sQN6y6cw-55">
          <mxGeometry relative="1" as="geometry" />
        </mxCell>
        <mxCell id="L4MWPg49hpz_FnOXa8zw-12" value="N1 consegue resolver?" style="rhombus;whiteSpace=wrap;html=1;" vertex="1" parent="sPsWBP4yPpg4sQN6y6cw-1">
          <mxGeometry x="60" y="690" width="80" height="80" as="geometry" />
        </mxCell>
        <mxCell id="L4MWPg49hpz_FnOXa8zw-16" value="" style="endArrow=classic;html=1;rounded=0;fontSize=12;startSize=8;endSize=8;curved=1;" edge="1" parent="sPsWBP4yPpg4sQN6y6cw-1">
          <mxGeometry width="50" height="50" relative="1" as="geometry">
            <mxPoint x="480" y="730" as="sourcePoint" />
            <mxPoint x="140" y="730" as="targetPoint" />
          </mxGeometry>
        </mxCell>
        <mxCell id="L4MWPg49hpz_FnOXa8zw-26" value="" style="edgeStyle=none;curved=1;rounded=0;orthogonalLoop=1;jettySize=auto;html=1;fontSize=12;startSize=8;endSize=8;" edge="1" parent="sPsWBP4yPpg4sQN6y6cw-1" source="L4MWPg49hpz_FnOXa8zw-17" target="L4MWPg49hpz_FnOXa8zw-25">
          <mxGeometry relative="1" as="geometry" />
        </mxCell>
        <mxCell id="L4MWPg49hpz_FnOXa8zw-17" value="Implementação de novo Sistema Operacional" style="whiteSpace=wrap;html=1;" vertex="1" parent="sPsWBP4yPpg4sQN6y6cw-1">
          <mxGeometry x="250" y="840" width="120" height="60" as="geometry" />
        </mxCell>
        <mxCell id="L4MWPg49hpz_FnOXa8zw-23" value="Sim" style="text;html=1;align=center;verticalAlign=middle;resizable=0;points=[];autosize=1;strokeColor=none;fillColor=none;" vertex="1" parent="sPsWBP4yPpg4sQN6y6cw-1">
          <mxGeometry x="220" y="770" width="40" height="30" as="geometry" />
        </mxCell>
        <mxCell id="L4MWPg49hpz_FnOXa8zw-24" value="Não" style="text;html=1;align=center;verticalAlign=middle;resizable=0;points=[];autosize=1;strokeColor=none;fillColor=none;" vertex="1" parent="sPsWBP4yPpg4sQN6y6cw-1">
          <mxGeometry x="50" y="840" width="50" height="30" as="geometry" />
        </mxCell>
        <mxCell id="L4MWPg49hpz_FnOXa8zw-27" style="edgeStyle=orthogonalEdgeStyle;rounded=0;orthogonalLoop=1;jettySize=auto;html=1;fontSize=12;startSize=8;endSize=8;" edge="1" parent="sPsWBP4yPpg4sQN6y6cw-1" source="L4MWPg49hpz_FnOXa8zw-25" target="L4MWPg49hpz_FnOXa8zw-44">
          <mxGeometry relative="1" as="geometry">
            <mxPoint x="710" y="170" as="targetPoint" />
          </mxGeometry>
        </mxCell>
        <mxCell id="L4MWPg49hpz_FnOXa8zw-25" value="Atualização na base de conhecimento" style="shape=cylinder3;whiteSpace=wrap;html=1;boundedLbl=1;backgroundOutline=1;size=15;" vertex="1" parent="sPsWBP4yPpg4sQN6y6cw-1">
          <mxGeometry x="510" y="820" width="80" height="100" as="geometry" />
        </mxCell>
        <mxCell id="L4MWPg49hpz_FnOXa8zw-29" style="edgeStyle=orthogonalEdgeStyle;rounded=0;orthogonalLoop=1;jettySize=auto;html=1;fontSize=12;startSize=8;endSize=8;" edge="1" parent="sPsWBP4yPpg4sQN6y6cw-1" source="L4MWPg49hpz_FnOXa8zw-28" target="L4MWPg49hpz_FnOXa8zw-44">
          <mxGeometry relative="1" as="geometry">
            <mxPoint x="710" y="170" as="targetPoint" />
          </mxGeometry>
        </mxCell>
        <mxCell id="L4MWPg49hpz_FnOXa8zw-28" value="Atualização na base de conhecimento" style="shape=cylinder3;whiteSpace=wrap;html=1;boundedLbl=1;backgroundOutline=1;size=15;" vertex="1" parent="sPsWBP4yPpg4sQN6y6cw-1">
          <mxGeometry x="510" y="965" width="80" height="100" as="geometry" />
        </mxCell>
        <mxCell id="L4MWPg49hpz_FnOXa8zw-31" style="edgeStyle=orthogonalEdgeStyle;rounded=0;orthogonalLoop=1;jettySize=auto;html=1;fontSize=12;startSize=8;endSize=8;entryX=0.5;entryY=1;entryDx=0;entryDy=0;" edge="1" parent="sPsWBP4yPpg4sQN6y6cw-1" source="L4MWPg49hpz_FnOXa8zw-30" target="L4MWPg49hpz_FnOXa8zw-44">
          <mxGeometry relative="1" as="geometry">
            <mxPoint x="710" y="170" as="targetPoint" />
          </mxGeometry>
        </mxCell>
        <mxCell id="L4MWPg49hpz_FnOXa8zw-30" value="Atualização na base de conhecimento" style="shape=cylinder3;whiteSpace=wrap;html=1;boundedLbl=1;backgroundOutline=1;size=15;" vertex="1" parent="sPsWBP4yPpg4sQN6y6cw-1">
          <mxGeometry x="510" y="1125" width="80" height="100" as="geometry" />
        </mxCell>
        <mxCell id="L4MWPg49hpz_FnOXa8zw-32" value="" style="endArrow=none;dashed=1;html=1;dashPattern=1 3;strokeWidth=2;rounded=0;" edge="1" parent="sPsWBP4yPpg4sQN6y6cw-1">
          <mxGeometry width="50" height="50" relative="1" as="geometry">
            <mxPoint x="-210" y="1280" as="sourcePoint" />
            <mxPoint x="880" y="1280" as="targetPoint" />
          </mxGeometry>
        </mxCell>
        <mxCell id="L4MWPg49hpz_FnOXa8zw-33" style="edgeStyle=none;curved=1;rounded=0;orthogonalLoop=1;jettySize=auto;html=1;exitX=0;exitY=0.5;exitDx=0;exitDy=0;exitPerimeter=0;fontSize=12;startSize=8;endSize=8;" edge="1" parent="sPsWBP4yPpg4sQN6y6cw-1" source="L4MWPg49hpz_FnOXa8zw-30" target="L4MWPg49hpz_FnOXa8zw-30">
          <mxGeometry relative="1" as="geometry" />
        </mxCell>
        <mxCell id="L4MWPg49hpz_FnOXa8zw-36" style="edgeStyle=orthogonalEdgeStyle;rounded=0;orthogonalLoop=1;jettySize=auto;html=1;fontSize=12;startSize=8;endSize=8;entryX=0.5;entryY=1;entryDx=0;entryDy=0;" edge="1" parent="sPsWBP4yPpg4sQN6y6cw-1" source="L4MWPg49hpz_FnOXa8zw-34" target="L4MWPg49hpz_FnOXa8zw-44">
          <mxGeometry relative="1" as="geometry">
            <mxPoint x="710" y="180" as="targetPoint" />
          </mxGeometry>
        </mxCell>
        <mxCell id="L4MWPg49hpz_FnOXa8zw-34" value="Atualização na base de conhecimento" style="shape=cylinder3;whiteSpace=wrap;html=1;boundedLbl=1;backgroundOutline=1;size=15;" vertex="1" parent="sPsWBP4yPpg4sQN6y6cw-1">
          <mxGeometry x="510" y="1315" width="80" height="100" as="geometry" />
        </mxCell>
        <mxCell id="L4MWPg49hpz_FnOXa8zw-35" style="edgeStyle=none;curved=1;rounded=0;orthogonalLoop=1;jettySize=auto;html=1;exitX=0;exitY=0.5;exitDx=0;exitDy=0;exitPerimeter=0;fontSize=12;startSize=8;endSize=8;" edge="1" parent="sPsWBP4yPpg4sQN6y6cw-1" source="L4MWPg49hpz_FnOXa8zw-34" target="L4MWPg49hpz_FnOXa8zw-34">
          <mxGeometry relative="1" as="geometry" />
        </mxCell>
        <mxCell id="L4MWPg49hpz_FnOXa8zw-37" value="Sim" style="text;html=1;align=center;verticalAlign=middle;resizable=0;points=[];autosize=1;strokeColor=none;fillColor=none;" vertex="1" parent="sPsWBP4yPpg4sQN6y6cw-1">
          <mxGeometry x="160" y="985" width="40" height="30" as="geometry" />
        </mxCell>
        <mxCell id="L4MWPg49hpz_FnOXa8zw-38" value="Sim" style="text;html=1;align=center;verticalAlign=middle;resizable=0;points=[];autosize=1;strokeColor=none;fillColor=none;" vertex="1" parent="sPsWBP4yPpg4sQN6y6cw-1">
          <mxGeometry x="160" y="1155" width="40" height="30" as="geometry" />
        </mxCell>
        <mxCell id="L4MWPg49hpz_FnOXa8zw-39" value="Sim" style="text;html=1;align=center;verticalAlign=middle;resizable=0;points=[];autosize=1;strokeColor=none;fillColor=none;" vertex="1" parent="sPsWBP4yPpg4sQN6y6cw-1">
          <mxGeometry x="160" y="1335" width="40" height="30" as="geometry" />
        </mxCell>
        <mxCell id="L4MWPg49hpz_FnOXa8zw-40" value="Não" style="text;html=1;align=center;verticalAlign=middle;resizable=0;points=[];autosize=1;strokeColor=none;fillColor=none;" vertex="1" parent="sPsWBP4yPpg4sQN6y6cw-1">
          <mxGeometry x="50" y="1055" width="50" height="30" as="geometry" />
        </mxCell>
        <mxCell id="L4MWPg49hpz_FnOXa8zw-41" value="Não" style="text;html=1;align=center;verticalAlign=middle;resizable=0;points=[];autosize=1;strokeColor=none;fillColor=none;" vertex="1" parent="sPsWBP4yPpg4sQN6y6cw-1">
          <mxGeometry x="50" y="1240" width="50" height="30" as="geometry" />
        </mxCell>
        <mxCell id="L4MWPg49hpz_FnOXa8zw-43" value="Encerrar atendimento&amp;nbsp;" style="whiteSpace=wrap;html=1;" vertex="1" parent="sPsWBP4yPpg4sQN6y6cw-1">
          <mxGeometry x="750" y="100" width="120" height="60" as="geometry" />
        </mxCell>
        <mxCell id="L4MWPg49hpz_FnOXa8zw-45" style="edgeStyle=none;curved=1;rounded=0;orthogonalLoop=1;jettySize=auto;html=1;entryX=0;entryY=0.5;entryDx=0;entryDy=0;fontSize=12;startSize=8;endSize=8;" edge="1" parent="sPsWBP4yPpg4sQN6y6cw-1" source="L4MWPg49hpz_FnOXa8zw-44" target="L4MWPg49hpz_FnOXa8zw-43">
          <mxGeometry relative="1" as="geometry" />
        </mxCell>
        <mxCell id="L4MWPg49hpz_FnOXa8zw-44" value="Requisição concluída?" style="rhombus;whiteSpace=wrap;html=1;" vertex="1" parent="sPsWBP4yPpg4sQN6y6cw-1">
          <mxGeometry x="610" y="90" width="80" height="80" as="geometry" />
        </mxCell>
        <mxCell id="L4MWPg49hpz_FnOXa8zw-46" value="Sim" style="text;html=1;align=center;verticalAlign=middle;resizable=0;points=[];autosize=1;strokeColor=none;fillColor=none;" vertex="1" parent="sPsWBP4yPpg4sQN6y6cw-1">
          <mxGeometry x="690" y="100" width="40" height="30" as="geometry" />
        </mxCell>
      </root>
    </mxGraphModel>
  </diagram>
</mxfile>
